<mxfile host="app.diagrams.net" modified="2021-05-18T01:34:00.831Z" agent="5.0 (Windows NT 10.0; Win64; x64) AppleWebKit/537.36 (KHTML, like Gecko) Chrome/90.0.4430.212 Safari/537.36" etag="OMid5ZnjM6Tt1GE2qZPw" version="14.6.11" type="github">
  <diagram id="jhcyXa1qXz4l_H64MNO4" name="Page-1">
    <mxGraphModel dx="1422" dy="794" grid="1" gridSize="10" guides="1" tooltips="1" connect="1" arrows="1" fold="1" page="1" pageScale="1" pageWidth="850" pageHeight="1100" math="0" shadow="0">
      <root>
        <mxCell id="0" />
        <mxCell id="1" parent="0" />
        <mxCell id="TF2Cti9xMv_GVYMGIi2t-1" value="B266FF" style="strokeWidth=1;shadow=0;dashed=0;align=center;html=1;shape=mxgraph.mockup.containers.browserWindow;rSize=0;strokeColor=#666666;strokeColor2=#008cff;strokeColor3=#c4c4c4;mainText=,;recursiveResize=0;fillColor=#000000;" vertex="1" parent="1">
          <mxGeometry x="150" y="120" width="570" height="540" as="geometry" />
        </mxCell>
        <mxCell id="TF2Cti9xMv_GVYMGIi2t-14" value="" style="rounded=0;whiteSpace=wrap;html=1;fillColor=#B266FF;" vertex="1" parent="TF2Cti9xMv_GVYMGIi2t-1">
          <mxGeometry x="25" y="130" width="520" height="400" as="geometry" />
        </mxCell>
        <mxCell id="TF2Cti9xMv_GVYMGIi2t-2" value="Page 1" style="strokeWidth=1;shadow=0;dashed=0;align=center;html=1;shape=mxgraph.mockup.containers.anchor;fontSize=17;fontColor=#666666;align=left;" vertex="1" parent="TF2Cti9xMv_GVYMGIi2t-1">
          <mxGeometry x="60" y="12" width="110" height="26" as="geometry" />
        </mxCell>
        <mxCell id="TF2Cti9xMv_GVYMGIi2t-3" value="https://www.draw.io" style="strokeWidth=1;shadow=0;dashed=0;align=center;html=1;shape=mxgraph.mockup.containers.anchor;rSize=0;fontSize=17;fontColor=#666666;align=left;" vertex="1" parent="TF2Cti9xMv_GVYMGIi2t-1">
          <mxGeometry x="130" y="60" width="250" height="26" as="geometry" />
        </mxCell>
        <mxCell id="TF2Cti9xMv_GVYMGIi2t-4" value="" style="rounded=0;whiteSpace=wrap;html=1;fillColor=#000000;" vertex="1" parent="TF2Cti9xMv_GVYMGIi2t-1">
          <mxGeometry x="70" y="200" width="120" height="100" as="geometry" />
        </mxCell>
        <mxCell id="TF2Cti9xMv_GVYMGIi2t-5" value="" style="rounded=0;whiteSpace=wrap;html=1;fillColor=#000000;" vertex="1" parent="TF2Cti9xMv_GVYMGIi2t-1">
          <mxGeometry x="420" y="310" width="110" height="90" as="geometry" />
        </mxCell>
        <mxCell id="TF2Cti9xMv_GVYMGIi2t-6" value="FF66FF" style="rounded=0;whiteSpace=wrap;html=1;fillColor=#000000;" vertex="1" parent="TF2Cti9xMv_GVYMGIi2t-1">
          <mxGeometry x="210" y="200" width="300" height="100" as="geometry" />
        </mxCell>
        <mxCell id="TF2Cti9xMv_GVYMGIi2t-7" value="B266FF" style="rounded=0;whiteSpace=wrap;html=1;fillColor=#B266FF;" vertex="1" parent="TF2Cti9xMv_GVYMGIi2t-1">
          <mxGeometry x="70" y="310" width="110" height="90" as="geometry" />
        </mxCell>
        <mxCell id="TF2Cti9xMv_GVYMGIi2t-8" value="" style="rounded=0;whiteSpace=wrap;html=1;fillColor=#000000;" vertex="1" parent="TF2Cti9xMv_GVYMGIi2t-1">
          <mxGeometry x="190" y="310" width="210" height="90" as="geometry" />
        </mxCell>
        <mxCell id="TF2Cti9xMv_GVYMGIi2t-10" value="B266FF" style="rounded=0;whiteSpace=wrap;html=1;fillColor=#B266FF;" vertex="1" parent="TF2Cti9xMv_GVYMGIi2t-1">
          <mxGeometry x="75" y="410" width="455" height="50" as="geometry" />
        </mxCell>
        <mxCell id="TF2Cti9xMv_GVYMGIi2t-11" value="" style="rounded=0;whiteSpace=wrap;html=1;fillColor=#000000;" vertex="1" parent="TF2Cti9xMv_GVYMGIi2t-1">
          <mxGeometry x="70" y="470" width="460" height="40" as="geometry" />
        </mxCell>
        <mxCell id="TF2Cti9xMv_GVYMGIi2t-12" value="" style="verticalLabelPosition=bottom;shadow=0;dashed=0;align=center;html=1;verticalAlign=top;strokeWidth=1;shape=mxgraph.mockup.containers.userMale;strokeColor=#666666;strokeColor2=#008cff;fillColor=#B266FF;" vertex="1" parent="TF2Cti9xMv_GVYMGIi2t-1">
          <mxGeometry x="95" y="215" width="70" height="70" as="geometry" />
        </mxCell>
        <mxCell id="TF2Cti9xMv_GVYMGIi2t-13" value="" style="verticalLabelPosition=bottom;shadow=0;dashed=0;align=center;html=1;verticalAlign=top;strokeWidth=1;shape=mxgraph.mockup.containers.userMale;strokeColor=#666666;strokeColor2=#008cff;fillColor=#B266FF;" vertex="1" parent="TF2Cti9xMv_GVYMGIi2t-1">
          <mxGeometry x="440" y="320" width="70" height="70" as="geometry" />
        </mxCell>
        <mxCell id="TF2Cti9xMv_GVYMGIi2t-15" value="&lt;font style=&quot;font-size: 25px&quot;&gt;ARBORIST&lt;/font&gt;" style="rounded=0;whiteSpace=wrap;html=1;fillColor=#B266FF;" vertex="1" parent="TF2Cti9xMv_GVYMGIi2t-1">
          <mxGeometry x="75" y="140" width="425" height="50" as="geometry" />
        </mxCell>
        <mxCell id="TF2Cti9xMv_GVYMGIi2t-16" value="B266FF" style="text;html=1;strokeColor=none;fillColor=none;align=center;verticalAlign=middle;whiteSpace=wrap;rounded=0;" vertex="1" parent="TF2Cti9xMv_GVYMGIi2t-1">
          <mxGeometry x="455" y="170" width="40" height="20" as="geometry" />
        </mxCell>
      </root>
    </mxGraphModel>
  </diagram>
</mxfile>
